<svg xmlns="http://www.w3.org/2000/svg" viewBox="0 0 80 80">
  <path fill="#2691D0" d="M78.1 78.2H1.9V61.5h76.2"/>
  <path fill="#FFF" d="M80 61.5H0V0h80"/>
  <path fill="#2691D0" d="M40 8.7c15.7 0 29.6 7.5 38.1 19.1v-26H1.9v26C10.4 16.3 24.3 8.7 40 8.7z"/>
  <path fill="#2691D0" d="M40 10.6c-15.9 0-29.9 7.9-38.1 19.9v29.2h76.2V30.5c-8.2-12-22.2-19.9-38.1-19.9z"/>
  <path fill="#FFF" d="M40 10.6c15.9 0 29.9 7.9 38.1 20v-2.7C69.6 16.3 55.7 8.7 40 8.7c-15.7 0-29.6 7.5-38.1 19.1v2.7c8.2-12 22.2-19.9 38.1-19.9z"/>
  <g fill="#FFF">
    <path d="M9.4 41.2c-.2.3-.3.6-.4.8-3.1.9-5.1.1-5.2 0-.3-.1-.7 0-.8.3-.1.3 0 .6.3.8.1.1 2.3.9 5.4.2v.1c0 .9.4 1.5.9 1.8 1.4.9 4.4.1 8.8-4.3-.3.8-.5 1.7-.7 2.6v.1c0 .2.1.5.4.6.5.2.7-.2 1-.5l.6-.9c.5-.8 1.7-2.5 2.5-3.4-.1.5-.2 1.1-.2 1.6 0 .7.2 1.4.8 1.7.5.3 1.3.4 3.1-.6.1.4.4.6.6.7 1.1.5 3.2-.6 5.4-2.6-.3.6-.5 1.2-.6 1.4v.2c0 .3.2.5.4.6.5.2.8-.2 1-.5l.7-.9c.5-.8 1.8-2.6 2.6-3.4.2.5.6 1.2 1.3 1.6-.2.5-.3.9-.3 1.2 0 .4.2.7.5.9.6.4 1.4.2 2.3-.3-2.9 2.8-4.2 5.5-4.2 6.7v.1c0 .7.3 1 .6 1.1.4.2 1 .1 1.6-.4 2.1-1.7 3.7-5.6 4.5-8 1.1-.9 2.3-1.7 3.8-2.4-.5.8-.7 1.6-.7 2.2 0 .2 0 .4.1.6.2.4.5.7 1 .7 1 .1 2.4-.9 4-2.9-.1.4-.3.8-.4 1.1-4.5 3.5-6.5 7.2-6.8 9.2v.5c0 .8.3 1.2.6 1.3.3.2.9.3 1.8-.4s3.2-4.2 5.4-9.9c2.9-2.2 6.9-4.3 12.2-5.7.3-.1.4-.3.4-.6V34c-.1-.3-.4-.5-.7-.4-4.6 1.3-8.3 3-11.2 4.9.3-1 .7-2 1-3.1v-.2c0-.2-.1-.4-.4-.5-.3-.1-.6 0-.8.2-3 4.6-4.7 5.4-5.1 5.4v-.2c0-.5.5-1.8 1.9-3.4.1-.1.2-.3.2-.4 0-.1 0-.2-.1-.3-.2-.2-.5-.3-.7-.2-1.9.8-3.5 1.7-4.9 2.7v-.2c0-.2-.1-.4-.3-.5.4-.3.8-.7 1.3-1.1.5-.4.6-.8.6-1.1 0-.1 0-.2-.1-.3-.1-.4-.5-.7-1.1-.8-1.3-.2-3.4.9-5.3 3.7-.6-.3-.9-1.2-1-1.5v-.1c-.1-.2-.3-.4-.6-.4-.4 0-.8.3-1.5 1.1v-.1c0-.1.1-.2.1-.3 0-.2-.1-.4-.3-.5-.3-.2-.6-.1-.8.2-3.4 4.4-6.3 5.6-6.7 5.4v-.3c.7-.5 1.6-1.2 2.7-2.1 1-.8 1.2-1.5 1.2-1.9 0-.2 0-.4-.1-.5-.2-.5-.7-.7-1.3-.7-1.2.1-2.8 1.5-3.6 4.4-1.9 1.3-2.5 1.1-2.5 1.1-.3-.1-.2-1 .1-2.4.1-.6.2-.9 0-1.2-.1-.3-.4-.4-.7-.4-.6 0-1.3.6-2.8 2.7.6-1.4 1.2-2.3 1.2-2.3.1-.1.1-.2.1-.3 0-.2-.1-.4-.3-.5-.3-.2-.6-.1-.8.1-5.3 6.3-8.9 7.6-9.9 7-.2-.1-.3-.4-.3-.8 0-.2 0-.3.1-.5 2-.7 4.3-2 6.7-4.4 1.4-1.4 2.2-2.8 2.2-3.8 0-.2 0-.4-.1-.6-.2-.5-.7-.9-1.3-.9-2.3-.6-5.5 1.9-8.4 7.5zm8-6.8c.2 0 .3.1.3.1v.2c0 .5-.5 1.6-1.9 3-1.9 1.9-3.6 3-5.2 3.7 2.8-5.2 5.6-7.1 6.8-7zm11.8 3.1c.2-.1.3-.1.4-.1 0 .1-.2.5-.8 1-.4.4-.8.7-1.2 1 .7-1.3 1.4-1.8 1.6-1.9zm13.4-2c.2 0 .4-.1.5 0l-.1.1c-1.4 1.3-2.6 2-3.6 2.4 1.4-2 2.7-2.4 3.2-2.5zm-1.9 3.1c-1.2 1-2.2 1.5-2.6 1.5 0-.1.1-.4.3-.8.7 0 1.5-.3 2.3-.7zm-.4 3.2c-.8 2.1-2 4.4-3.4 5.4-.1.1-.1.1-.2.1.1-.7 1.2-3 3.6-5.5zm3.9 7.3c0-.3.1-.7.3-1.3.6-1.5 1.9-3.7 4.4-6-1.8 4.3-3.6 6.9-4.2 7.4-.2.2-.4.2-.4.2s-.1-.1-.1-.3z"/>
    <path d="M61.5 21.3c-.4 0-.7.2-.8.6 0 0-3.3 8.3-3.7 9.2-1 .1-10.1.5-10.1.5-.5 0-.9.4-.9.9s.4.9.9.8l10.6-.6c.4 0 .7-.2.8-.6 0 0 2-5.1 3-7.6 1 2.6 3 7.6 3 7.6.1.3.4.5.8.6 0 0 5.5.3 8.3.5-2.2 1.8-6.4 5.2-6.4 5.2-.2.2-.3.4-.3.7v.2s1.4 5.2 2.1 7.9c-2.4-1.5-7-4.4-7-4.4-.3-.2-.7-.2-1 0 0 0-4.7 2.9-7.1 4.4.7-2.6 2.1-7.3 2.1-7.3v-.2c0-.4-.3-.7-.7-.8-.5-.1-1 .1-1.1.6L51.3 49c-.1.3 0 .7.3.9.3.2.7.2 1 0 0 0 7.7-4.8 8.6-5.3.9.5 8.4 5.3 8.4 5.3.3.2.7.2 1 0 .2-.2.4-.4.4-.7V49s-2.2-8.6-2.5-9.5c.8-.6 7.7-6.3 7.7-6.3.2-.2.3-.4.3-.7v-.3c-.1-.3-.4-.6-.8-.6 0 0-9-.5-10-.6-.4-.9-3.7-9.2-3.7-9.2.2-.3-.2-.5-.5-.5z"/>
  </g>
  <path fill="#FFF" d="M78.1 61.5v16.7H1.9V61.5H0V80h80V61.5"/>
  <path fill="#FFF" d="M5.2 74.5v-9.3h4.9v1H6.4v3h3.4v1H6.4v3.3h3.8v1m8-9.3v9.3h-1.6l-3.8-8.1v8.1h-1.1v-9.3h1.7l3.7 8v-8m2.8 9.3v-9.3h4.9v1h-3.7v3h3.5v1h-3.5v3.3h3.8v1m2.7-8.3h1.8c.9 0 1.3.7 1.3 1.4 0 .8-.4 1.5-1.3 1.5h-1.8v-2.9zm1.4 4c.4 0 1.3.1 1.4 1.2.1 1.2 0 2.5.4 3.1h1.3c-.2-.6-.3-2-.3-2.4-.1-1.9-.5-2.2-1.6-2.4 1.1-.2 1.7-1 1.7-2.1 0-1.2-.6-2.3-2.3-2.3h-3.3v9.3h1.2v-4.3l1.5-.1zm8.8-2.5c0-1.1-.5-1.7-1.7-1.7-.4 0-1.8.1-1.8 2v3.1c0 2 .6 2.6 1.8 2.6.9 0 1.5-.2 1.7-.4v-2.8H36v-1h3V74c-.8.4-1.7.7-2.9.7-2 0-3-1-3-3.6V68c0-1.9 1-3 3-3 2.1 0 3 .7 3 2.7h-1.3zm7.1-2.5h1.2l-2.6 5.7v3.6h-1.2v-3.6l-2.6-5.7h1.4l1.8 4.5m7.3 2v.3c0 1.3.8 1.7 1.6 1.7 1 0 1.7-.4 1.7-1.5 0-2.1-4.3-1.8-4.3-4.6 0-1.7 1.2-2.5 2.8-2.5 1.7 0 2.7.8 2.6 2.7h-1.3c0-1-.3-1.7-1.5-1.7-.7 0-1.5.4-1.5 1.4 0 2.1 4.3 1.8 4.3 4.7 0 2-1.4 2.6-3 2.6-2.8 0-2.8-2.1-2.8-3h1.4v-.1zm11.3-6.5v1H59v8.3h-1.2v-8.3h-2.5v-1m10.5 6h-3.1l1.5-5 1.6 5zm-5.3 3.3h1.2l.7-2.2h3.7l.7 2.2h1.4l-3.1-9.3h-1.5l-3.1 9.3zm9.8-8.3h1.8c.9 0 1.3.7 1.3 1.4 0 .8-.4 1.5-1.3 1.5h-1.8v-2.9zm1.5 4c.4 0 1.3.1 1.4 1.2.1 1.2 0 2.5.4 3.1h1.3c-.2-.6-.3-2-.3-2.4-.1-1.9-.5-2.2-1.6-2.4 1.1-.2 1.7-1 1.7-2.1 0-1.2-.6-2.3-2.3-2.3h-3.3v9.3h1.2v-4.3l1.5-.1z"/>
</svg>